<svg width="361" height="56" viewBox="0 0 361 56" fill="none" xmlns="http://www.w3.org/2000/svg">
<path d="M22.2119 6.51649H11.6431C8.76737 6.51649 6.42639 8.88153 6.42639 11.7868V16.8146L34 32.4528V11.8156C34 5.30155 28.7524 0 22.3046 0H11.6954C5.24521 0 0 5.30155 0 11.8156V20.2746L30.8581 37.5935V44.1844C30.8581 48.9481 27.0222 52.8258 22.3046 52.8258H11.6954C6.98015 52.8258 3.1419 48.9505 3.1419 44.1844V29.2642L23.9992 41.0558V44.1892C23.9992 44.5397 23.9207 46.2829 22.3545 46.2829H11.7857C10.6425 46.2829 9.71327 45.3441 9.71327 44.1892V36.8179L6.57137 34.9283V44.1868C6.57137 47.0921 8.91234 49.4571 11.7881 49.4571H22.3569C25.1304 49.4571 27.1434 47.2409 27.1434 44.1868V39.1926L0 23.8498V44.1844C0 50.6985 5.24759 56 11.6954 56H22.3046C28.7548 56 34 50.6985 34 44.1844V35.7254L3.1419 18.4066V11.8156C3.1419 7.05192 6.97777 3.17421 11.6954 3.17421H22.3046C27.0199 3.17421 30.8581 7.04952 30.8581 11.8156V27.0288L9.57067 14.9562V11.7868C9.57067 10.6319 10.4999 9.69309 11.6431 9.69309H22.2119C23.3551 9.69309 24.2844 10.6319 24.2844 11.7868V19.3358L27.4286 21.2254V11.7868C27.4286 8.87913 25.0877 6.51649 22.2119 6.51649Z" fill="url(#paint0_linear_3097_2043)"/>
<path d="M65.9288 11.7947H60.4363C60.1164 9.72207 58.5664 8.46498 56.0252 8.46498C53.5426 8.46498 52.1683 9.45624 52.1683 10.8891C52.1683 12.6688 54.0066 13.2861 58.652 14.2458C64.1445 15.3857 66.0099 18.1027 66.0099 21.6622C66.0099 26.2175 61.7159 28.993 56.3992 28.993C50.5282 28.993 46.2343 25.8075 46 20.7295H51.4609C51.7538 23.0094 53.7408 24.5278 56.7777 24.5278C58.9404 24.5278 60.5444 23.4465 60.5444 21.901C60.5444 20.0041 58.9404 19.2426 54.705 18.4541C49.537 17.4899 46.7299 15.3587 46.7299 10.8891C46.7299 6.59512 50.9923 4.02686 56.3676 4.02686C61.6934 4.02686 65.6629 7.26646 65.9288 11.7947Z" fill="white"/>
<path d="M68.8477 4.6084H74.1644V17.8687C74.1644 21.667 76.2686 24.2082 79.7425 24.2082C83.2164 24.2082 85.3205 21.667 85.3205 17.8687V4.6084H90.6373V17.8687C90.6373 24.6138 86.2848 28.9978 79.7425 28.9978C73.2002 28.9978 68.8477 24.6183 68.8477 17.8687V4.6084Z" fill="white"/>
<path d="M94.5508 4.6084H103.693C109.884 4.6084 113.506 8.05526 113.506 13.3134C113.506 18.6302 109.884 22.077 103.693 22.077H99.8675V28.4166H94.5508V4.6084ZM103.459 17.3731C106.41 17.3731 108.19 15.9718 108.19 13.3134C108.19 10.6866 106.41 9.31236 103.459 9.31236H99.8675V17.3731H103.459Z" fill="white"/>
<path d="M116.367 4.6084H134.066V9.22224H121.684V14.0704H133.043V18.6842H121.684V23.7937H134.331V28.4076H116.372V4.6084H116.367Z" fill="white"/>
<path d="M152.057 28.4121L147.443 20.9055H143.207V28.4121H137.891V4.6084H147.47C153.516 4.6084 157.049 7.82096 157.049 12.7547C157.049 16.0259 155.499 18.5355 152.696 19.8512L158.216 28.4076H152.057V28.4121ZM143.207 16.2061H147.24C150.043 16.2061 151.737 15.0076 151.737 12.7592C151.737 10.5109 150.043 9.31236 147.24 9.31236H143.207V16.2061Z" fill="white"/>
<path d="M159.359 16.4988C159.359 9.28519 164.762 4 172.093 4C178.635 4 183.014 7.94249 183.979 12.9664H178.603C178.049 10.6865 175.625 8.87968 172.205 8.87968C167.884 8.87968 164.672 12.0652 164.672 16.5033C164.672 20.9144 167.884 24.127 172.205 24.127C175.62 24.127 178.428 21.8787 178.833 19.7159H184.208C183.478 24.5055 178.689 29.0022 172.088 29.0022C164.762 28.9977 159.359 23.7125 159.359 16.4988Z" fill="white"/>
<path d="M200.684 23.7982H191.456L189.789 28.4121H184.297L193.525 4.6084H199.044L208.272 28.4121H202.342L200.684 23.7982ZM199.049 19.1844L196.07 10.8894L193.092 19.1844H199.049Z" fill="white"/>
<path d="M224.842 28.4121L220.228 20.9055H215.993V28.4121H210.676V4.6084H220.255C226.302 4.6084 229.834 7.82096 229.834 12.7547C229.834 16.0259 228.284 18.5355 225.482 19.8512L231.001 28.4076H224.842V28.4121ZM215.993 16.2061H220.025C222.828 16.2061 224.522 15.0076 224.522 12.7592C224.522 10.5109 222.828 9.31236 220.025 9.31236H215.993V16.2061Z" fill="white"/>
<path d="M58 37.6797H60.482L65.2915 45.5096L70.101 37.6797H72.5831V51.6751H69.4692V44.0002L66.2325 49.3767H64.3505L61.1139 44.0002V51.6751H58V37.6797Z" fill="white"/>
<path d="M98.9921 48.9617H93.5825L92.6052 51.6751H89.3867L94.7963 37.6797H98.0329L103.442 51.6751H99.9649L98.9921 48.9617ZM98.0329 46.2484L96.2873 41.3689L94.5417 46.2484H98.0329Z" fill="white"/>
<path d="M128.566 51.6751L125.862 47.2608H123.38V51.6751H120.266V37.6797H125.88C129.425 37.6797 131.494 39.5676 131.494 42.4725C131.494 44.3969 130.585 45.8745 128.944 46.6451L132.18 51.6751H128.566ZM123.38 44.4973H125.743C127.389 44.4973 128.38 43.795 128.38 42.4725C128.38 41.15 127.389 40.4478 125.743 40.4478H123.38V44.4973Z" fill="white"/>
<path d="M154.049 46.335L152.149 48.5331V51.6751H149.035V37.6797H152.149V44.2738L157.731 37.6797H161.55L156.072 44.0184L161.841 51.6797H157.954L154.049 46.335Z" fill="white"/>
<path d="M178.566 37.6797H188.94V40.393H181.68V43.2432H188.34V45.9565H181.68V48.9617H189.095V51.6751H178.566V37.6797Z" fill="white"/>
<path d="M218 40.4432H213.463V51.6751H210.349V40.4432H205.812V37.6797H218V40.4432Z" fill="white"/>
<path d="M257.398 40.5L259.314 34.6289H268.525L270.441 40.5H276.102L267.312 15.0469H260.527L251.703 40.5H257.398ZM260.65 30.5156L263.832 20.7773H264.008L267.189 30.5156H260.65ZM285.031 40.8164C288.143 40.8164 289.725 39.0234 290.445 37.4414H290.691V40.5H295.824V15.0469H290.621V24.6094H290.445C289.76 23.0625 288.23 21.1641 285.031 21.1641C280.812 21.1641 277.262 24.4336 277.262 30.9727C277.262 37.3535 280.672 40.8164 285.031 40.8164ZM282.605 30.9375C282.588 27.6152 283.994 25.3125 286.648 25.3125C289.268 25.3125 290.727 27.5098 290.727 30.9375C290.727 34.3828 289.25 36.6504 286.648 36.668C284.012 36.6504 282.588 34.3125 282.605 30.9375ZM300.008 40.5H305.211V29.0391C305.193 26.877 306.564 25.4531 308.34 25.4531C310.115 25.4531 311.311 26.666 311.293 28.5469V40.5H316.355V28.8281C316.338 26.8066 317.498 25.4531 319.449 25.4531C321.154 25.4531 322.455 26.5078 322.438 28.6875V40.5H327.641V27.668C327.641 23.502 325.162 21.1641 321.629 21.1641C318.834 21.1641 316.654 22.5879 315.863 24.75H315.688C315.055 22.5527 313.104 21.1641 310.484 21.1641C307.918 21.1641 305.984 22.5176 305.176 24.75H304.965V21.4102H300.008V40.5ZM331.648 40.5H336.852V21.4102H331.648V40.5ZM331.402 16.2773C331.402 17.7188 332.686 18.9141 334.25 18.9141C335.797 18.9141 337.08 17.7188 337.062 16.2773C337.08 14.8008 335.797 13.623 334.25 13.6055C332.686 13.623 331.402 14.8008 331.402 16.2773ZM346.098 29.4609C346.098 26.9473 347.592 25.4883 349.754 25.4883C351.916 25.4883 353.182 26.8945 353.199 29.25V40.5H358.367V28.3359C358.385 23.8887 355.783 21.1641 351.793 21.1641C348.963 21.1641 346.924 22.5527 346.062 24.75H345.852V21.4102H340.895V40.5H346.098V29.4609Z" fill="white"/>
<defs>
<linearGradient id="paint0_linear_3097_2043" x1="32.0951" y1="0.119189" x2="2.5559" y2="53.571" gradientUnits="userSpaceOnUse">
<stop stop-color="#DEC699"/>
<stop offset="1" stop-color="#B8A379"/>
</linearGradient>
</defs>
</svg>
